<?xml version="1.0" standalone="no"?><!DOCTYPE svg PUBLIC "-//W3C//DTD SVG 1.1//EN" "http://www.w3.org/Graphics/SVG/1.1/DTD/svg11.dtd"><svg t="1521532315305" class="icon" style="" viewBox="0 0 1024 1024" version="1.1" xmlns="http://www.w3.org/2000/svg" p-id="4517" id="mx_n_1521532315305" xmlns:xlink="http://www.w3.org/1999/xlink" width="200" height="200"><defs><style type="text/css"></style></defs><path d="M512 512m-435.05 0a435.05 435.05 0 1 0 870.1 0 435.05 435.05 0 1 0-870.1 0Z" fill="#2C3D71" p-id="4518"></path><path d="M512 960C265 960 64 759 64 512S265 64 512 64s448 201 448 448-201 448-448 448z m0-870.1C279.25 89.9 89.9 279.25 89.9 512S279.25 934.1 512 934.1 934.1 744.75 934.1 512 744.75 89.9 512 89.9z" fill="#1B1E3B" p-id="4519"></path><path d="M371.93 504.23h280.15V685.5H371.93z" fill="#8DA0B7" p-id="4520"></path><path d="M652.26 685.69l-69.37 1.06q-34.86 0.51-70.08 0.7c-23.43 0.16-46.89 0.39-70.43 0.24-23.5 0-47-0.36-70.45-0.64h-1.57v-1.53c0.48-30.21 0.68-60.42 0.77-90.64q-0.1-45.32-0.63-90.64v-1.4h1.44c46.69-0.44 93.38-1 140.07-1.13 46.69-0.33 93.38-0.1 140.07 0h2.59v2.55l-1.06 91.26z m-0.37-0.37l-1.31-91.07-1.06-90 2.56 2.55c-46.69 0.09-93.38 0.33-140.07 0-46.69-0.1-93.38-0.69-140.07-1.13l1.42-1.42q-0.58 45.32-0.63 90.64c0.09 30.21 0.29 60.42 0.77 90.64l-1.57-1.53c23.26-0.28 46.43-0.66 69.62-0.64 23.16-0.15 46.39 0.08 69.65 0.24s46.54 0.36 70 0.7z" fill="#FFFFFF" p-id="4521"></path><path d="M401.8 508.35a116.37 116.37 0 0 1 2.2 16.48l0.15 2-2.32 0.15c-4.12 0.26-8.24 0.39-12.36 0.41l2.58-2.58c0 4.12-0.11 8.24-0.37 12.36l-0.15 2.36-2.07-0.15a117 117 0 0 1-17.16-2.22 117 117 0 0 1 17.14-2.16l-2.21 2.21c-0.25-4.12-0.35-8.24-0.37-12.36v-2.6h2.6c4.12 0 8.24 0.15 12.36 0.41l-2.17 2.17a116.37 116.37 0 0 1 2.15-16.48zM619.46 508.35a116.37 116.37 0 0 1 2.17 16.48l-2.17-2.17c4.12-0.27 8.24-0.39 12.36-0.41h2.6v2.6c0 4.12-0.11 8.24-0.37 12.36l-2.23-2.21a117 117 0 0 1 17.18 2.19 117 117 0 0 1-17.17 2.22l-2.07 0.15-0.15-2.36c-0.25-4.12-0.35-8.24-0.37-12.36l2.58 2.58c-4.12 0-8.24-0.15-12.36-0.41l-2.32-0.15 0.15-2a116.28 116.28 0 0 1 2.17-16.51zM401.8 681.38a116.37 116.37 0 0 1-2.17-16.48l2.17 2.17c-4.12 0.27-8.24 0.39-12.36 0.41h-2.6v-2.6c0-4.12 0.11-8.24 0.37-12.36l2.21 2.21a117 117 0 0 1-17.16-2.22 117 117 0 0 1 17.16-2.22l2.07-0.15 0.15 2.36c0.25 4.12 0.35 8.24 0.37 12.36l-2.58-2.58c4.12 0 8.24 0.15 12.36 0.41l2.32 0.15-0.15 2a116.37 116.37 0 0 1-2.16 16.54zM619.46 681.38a116.28 116.28 0 0 1-2.17-16.48l-0.15-2 2.32-0.15c4.12-0.26 8.24-0.39 12.36-0.41l-2.58 2.58c0-4.12 0.11-8.24 0.37-12.36l0.15-2.36 2.07 0.15a117 117 0 0 1 17.17 2.19 117 117 0 0 1-17.17 2.22l2.21-2.21c0.25 4.12 0.35 8.24 0.37 12.36v2.6h-2.6c-4.12 0-8.24-0.15-12.36-0.41l2.17-2.17a116.37 116.37 0 0 1-2.16 16.45zM303.54 708.81l-40.83 1.46c-13.83 0.47-27.88 1.13-42 1.39l-2.78 0.05-0.07-2.9q-1.23-49.2-1.74-98.4c-0.44-32.8-0.46-65.6-0.58-98.4v-5.2h5.2c27.62 0.14 55.24 0.06 82.87 0.41l4.83 0.06-0.06 4.71c-0.2 16.68-0.29 33.37-0.67 50l-1.11 49.66z m0 0l-3-99.64-1.11-48.75c-0.37-16.18-0.46-32.29-0.67-48.42l4.77 4.77c-27.62 0.34-55.24 0.27-82.87 0.41l5.18-5.18c-0.13 32.8-0.14 65.6-0.58 98.4s-0.92 65.6-1.74 98.4l-2.85-2.8c13.46 0.27 27 0.92 40.83 1.39z" fill="#FFFFFF" p-id="4522"></path><path d="M236.21 548.9H288v123.01h-51.79z" fill="#8DA0B7" p-id="4523"></path><path d="M288 671.91l-25.59 0.73c-8.64 0.23-17.39 0.58-26.2 0.68h-1.39v-1.42c-0.27-20.5-0.81-41-0.85-61.5l-0.33-61.5v-2.6h2.6l51.79 0.27h2.33v2.3c-0.09 10.38 0 20.79-0.28 31.14l-0.58 31z m0 0l-1.45-62.1-0.55-30.54c-0.23-10.15-0.19-20.24-0.28-30.36l2.31 2.31-51.79 0.27 2.59-2.59-0.33 61.5c0 20.5-0.58 41-0.85 61.5l-1.41-1.41c8.46 0.1 17 0.45 25.59 0.68z" fill="#FFFFFF" p-id="4524"></path><path d="M787.79 671.91H736V548.9h51.79z" fill="#8DA0B7" p-id="4525"></path><path d="M736 671.91l26.2-0.73c8.62-0.23 17.14-0.58 25.59-0.68l-1.41 1.41c-0.27-20.5-0.81-41-0.85-61.5l-0.33-61.5 2.59 2.59-51.79-0.28 2.31-2.31c-0.09 10.12 0 20.21-0.28 30.36l-0.58 30.54z m0 0L734.55 611l-0.55-31c-0.23-10.35-0.19-20.76-0.28-31.14v-2.3H736l51.79-0.27h2.6v2.6l-0.33 61.5c0 20.5-0.58 41-0.85 61.5v1.42h-1.39c-8.81-0.1-17.55-0.45-26.2-0.68z" fill="#FFFFFF" p-id="4526"></path><path d="M720.46 711.4l42-1.46c13.79-0.47 27.37-1.13 40.83-1.39l-2.85 2.85q-1.23-49.2-1.74-98.4c-0.44-32.8-0.46-65.6-0.58-98.4l5.18 5.18c-27.62-0.14-55.24-0.06-82.87-0.41l4.77-4.77c-0.2 16.13-0.29 32.23-0.67 48.42l-1.11 48.75z m0 0l-3-97.16-1.11-49.66c-0.37-16.62-0.46-33.31-0.67-50l-0.06-4.71 4.83-0.06c27.62-0.34 55.24-0.27 82.87-0.41h5.2v5.2c-0.13 32.8-0.14 65.6-0.58 98.4s-0.92 65.6-1.74 98.4l-0.07 2.9-2.78-0.05c-14.16-0.27-28.2-0.92-42-1.39zM688.64 709.36c-28.16 1.25-56.9 2.36-86 3.3l-43.88 1.25-44.28 0.93c-29.66 0.42-59.41 0.86-89.26 0.72s-59.73-1.26-89.34-2.11l-4.78-0.14 0.13-4.51 1.69-57c0.45-19 0.55-38 0.62-57s-0.18-38-0.52-57l-1.39-57-0.1-4.13 4.35-0.13c29.35-0.86 58.7-1.77 88-2.21 29.35-0.67 58.7-0.83 88-1.19s58.7-0.73 88-0.65c29.35-0.16 58.7 0.37 88 0.6l7.82 0.06-0.12 7.64c-0.6 38.87-1.43 77.75-2.85 115.95l-2 56.88z m-1.1-1.1l-4.3-115.4c-1.43-37.77-2.26-74.85-2.85-111.93l7.7 7.7c-29.35 0.23-58.7 0.76-88 0.6-29.35 0.08-58.7-0.34-88-0.65s-58.7-0.52-88-1.19c-29.35-0.44-58.7-1.35-88-2.21l4.25-4.25-1.39 57c-0.33 19-0.47 38-0.52 57s0.18 38 0.62 57l1.69 57-4.65-4.65c29.09-0.86 57.93-1.92 86.76-2.11s57.79 0.31 86.83 0.72l43.76 0.93 43.99 1.18z" fill="#FFFFFF" p-id="4527"></path><path d="M814.7 452.64l-60.71 0.17-60.71 0.5h-1.43v-1.46l-0.29-25.44v-0.27l0.1-0.3 9.89-30.24 0.41-1.24 1.36-0.26 19.6-3.8-2 1.64 5.53-15.13 0.21-0.58 0.56-0.54a245.88 245.88 0 0 0 19.27-20.27 257.2 257.2 0 0 0 17-22.23c5.29-7.68 10.24-15.6 14.78-23.74a254.26 254.26 0 0 0 12.32-24.85l8.15 5.14c-8.39 9.18-17.2 18.15-27.46 25.37-4.91 3.91-10.36 7-15.68 10.35-2.71 1.57-5.56 2.89-8.34 4.34a82.85 82.85 0 0 1-8.54 3.92 171 171 0 0 1-35.89 11 154.75 154.75 0 0 1-37.89 2.85l-25.61-1.32 23.4-11.52a34.64 34.64 0 0 0 4.27-2.43 21.56 21.56 0 0 0 3.46-2.92 14.62 14.62 0 0 0 2.35-3.29 9.58 9.58 0 0 0 0.68-1.67c0.16-0.38 0.26-1.39 0.24-0.93l11.49 5.06c-12.39 11-27 16.64-41.34 20.86a306.89 306.89 0 0 1-43.7 8.91c-14.64 1.91-29.31 3-44 3.63s-29.29 0.77-44.06 0.24l-5.41-0.19-0.65-5.25 6.47 5.44h-1l6.52-6.44 0.06 6.4h-6.17a593 593 0 0 1-87.8-5.61 303.77 303.77 0 0 1-43.24-9.48c-14.11-4.4-28.38-10.15-40.07-20.7l6.62-2.92a11.58 11.58 0 0 0 1.19 3.95 17.59 17.59 0 0 0 2.8 4 24.55 24.55 0 0 0 3.92 3.39 37.67 37.67 0 0 0 4.68 2.72l12.56 6.3-13.74 0.59a157.52 157.52 0 0 1-37-3 168.26 168.26 0 0 1-35.25-10.7 80.44 80.44 0 0 1-8.39-3.82c-2.73-1.42-5.53-2.7-8.19-4.23-5.24-3.21-10.6-6.23-15.48-10-10.17-6.94-19-15.64-27.36-24.56l4-2.55A257.31 257.31 0 0 0 244 310.48 280.71 280.71 0 0 0 259.38 334a260.45 260.45 0 0 0 17.53 22 246.36 246.36 0 0 0 19.74 19.89l0.48 0.44 0.23 0.58 5.84 15-2.07-1.7 19.67 3.39 1.61 0.28 0.55 1.57 10.58 30 0.16 0.45v0.53l0.28 25.44v3.23h-3.31l-151.49 1.79 3.31-8.88 17.54 14.81 1.82 1.54v2.51l1.29 135.3 0.8 135.3-7.45-7.45 157.71-0.76h157.71c52.57 0.28 105.14 0.25 157.71 0.83 52.57 0.41 105.14 1.32 157.71 2.36l-5 5 2.45-135.3c0.36-22.55 0.87-45.1 1-67.65l0.56-67.65v-0.46l0.34-0.29 17.41-15 0.59 1.57z m0-1.55l30.07-0.12h2.4l-1.81 1.58-17.29 15.1 0.34-0.75 0.56 67.65c0.16 22.55 0.67 45.1 1 67.65l2.45 135.3 0.09 4.93-5.12 0.1c-52.57 1-105.14 1.95-157.71 2.36-52.57 0.58-105.14 0.55-157.71 0.83H354.26L196.59 745h-7.49v-7.41l0.8-135.3 1.29-135.3 1.85 4-17.15-15.25-10.17-9 13.48 0.16 151.49 1.79-3.27 3.27 0.28-25.44 0.16 1-10.24-30.13 2.16 1.84-19.64-3.55-1.53-0.28-0.54-1.43-5.72-15.06 0.71 1a251.47 251.47 0 0 1-20-20.5 265.3 265.3 0 0 1-17.66-22.48c-5.53-7.76-10.65-15.8-15.46-24a261.11 261.11 0 0 1-13.25-25.4l-5.69-12.9 9.78 10.25c8.21 8.61 16.76 17 26.66 23.65a146.35 146.35 0 0 0 31.27 17 161.24 161.24 0 0 0 34.22 9.75 151.81 151.81 0 0 0 35.22 2l-1.15 6.85a44.87 44.87 0 0 1-5.79-3.15 32 32 0 0 1-5.27-4.31 25.22 25.22 0 0 1-4.2-5.69 18 18 0 0 1-2.21-7.48l-0.63-9.14 7.25 6.23c10.25 8.8 23.75 14 37.33 17.8a297.2 297.2 0 0 0 42 8 582.18 582.18 0 0 0 86.06 3.2l-6.13 6.41-0.25-6.88 6.77 0.43h0.14l5.5-1 1 6.4-6.06-5.45a607.81 607.81 0 0 0 85.82-4.93 293.45 293.45 0 0 0 41.56-8.59c13.33-3.94 26.52-9.26 36.06-17.63l12.22-10.72-0.73 15.79a17.83 17.83 0 0 1-0.88 5 23.24 23.24 0 0 1-1.61 3.88 28.23 28.23 0 0 1-4.65 6.42 35.07 35.07 0 0 1-5.74 4.77 47.93 47.93 0 0 1-6.2 3.44l-2.21-12.83a155.46 155.46 0 0 0 34.32-2.1 158.49 158.49 0 0 0 33.53-9.49 152.07 152.07 0 0 0 30.78-16.41c9.81-6.38 18.33-14.49 26.56-22.84l20-20.27-11.8 25.41a261.91 261.91 0 0 1-13.75 25.47c-5 8.2-10.33 16.14-16 23.83a268.82 268.82 0 0 1-18.21 22.2 251.93 251.93 0 0 1-20.53 20.1l0.77-1.12-6 14.93-0.57 1.42-1.42 0.23-19.72 3.13 1.76-1.5L694.92 427l0.1-0.57-0.29 25.44-1.45-1.45 60.71 0.5z" fill="#FFFFFF" p-id="4528"></path><path d="M673.69 452.81c-25.69 1.24-52.08 2.2-78.84 2.85s-53.81 1.13-81.11 1-54.86-1.38-82-2.18-54-0.6-81 0.07l-2 0.05-0.06-2.15-0.74-26.6-0.08-2.73 2.91-0.1q40.33-1.4 80.66-2c26.89-0.24 53.77-0.84 80.66-0.74q80.66 0.11 161.32 3.63l2 0.09-0.1 1.81z m-0.73-0.73l-1.53-26.23 1.9 1.9q-80.66 3.52-161.32 3.63c-26.89 0.1-53.77-0.5-80.66-0.74s-53.77-1-80.66-2l2.84-2.84-0.74 26.6-2.1-2.1c26.76 0.67 53.65 0.74 80.27 0.07s52.88-1.92 79.31-2.18 53.25 0.43 80.22 1 54.38 1.64 82.51 2.89zM564.31 594.87c-0.1 13.58-4.07 27.68-13.35 39A48.12 48.12 0 0 1 512 651c-14.85-0.63-28.29-8.2-37.81-18.29a60.85 60.85 0 0 1-16.82-37.81 52.48 52.48 0 0 1 14.56-40.07A55 55 0 0 1 512 537.55a54.32 54.32 0 0 1 21.73 4.86A48.38 48.38 0 0 1 551 555.83c9.32 11.3 13.31 25.45 13.31 39.04z m-1 0a43.11 43.11 0 0 0-4.73-19.28 46.93 46.93 0 0 0-12.33-14.93c-10-7.82-22-12.27-34.21-12.06a49.1 49.1 0 0 0-33.18 13.09A51.78 51.78 0 0 0 463 594.87a44.47 44.47 0 0 0 13.52 35.43c9.61 9.19 23.12 12.77 35.43 12a59.47 59.47 0 0 0 34.29-13.19c10.05-7.82 17.23-20.66 17.04-34.24zM345 398.06c28.49-1.07 57-1.57 85.46-2s57-0.39 85.46-0.6c28.49 0.2 57 0.18 85.46 0.59l42.73 0.72c14.24 0.43 28.49 0.68 42.73 1.27-14.24 0.59-28.49 0.84-42.73 1.27l-42.73 0.72c-28.49 0.41-57 0.39-85.46 0.59-28.49-0.22-57-0.18-85.46-0.6s-57-0.89-85.46-1.96z" fill="#FFFFFF" p-id="4529"></path></svg>