<?xml version="1.0" standalone="no"?><!DOCTYPE svg PUBLIC "-//W3C//DTD SVG 1.1//EN" "http://www.w3.org/Graphics/SVG/1.1/DTD/svg11.dtd"><svg t="1521538465686" class="icon" style="" viewBox="0 0 1024 1024" version="1.1" xmlns="http://www.w3.org/2000/svg" p-id="6128" xmlns:xlink="http://www.w3.org/1999/xlink" width="200" height="200"><defs><style type="text/css"></style></defs><path d="M860.914668 455.480752c42.246173-19.674085 74.27668-57.084113 89.51678-105.561198 28.858258-91.799776-19.167548-191.449333-107.056248-222.13317-64.963571-22.682605-134.711098-1.472538-178.366364 48.863894-51.157123-55.662741-118.034277-92.975555-191.707207-106.290815-86.352717-15.610536-174.481893 3.216251-248.1538 53.002145-78.133521 52.800553-131.98808 134.296659-151.642722 229.475392-19.627013 95.036493-2.813069 192.43887 47.341215 274.263457 31.102369 50.738591 74.013691 92.914156 124.094296 121.970936 3.13848 1.821485 6.599302 2.704598 10.032494 2.702552 5.554506 0 11.033287-2.309602 14.941294-6.692423 6.321986-7.088442 6.78759-17.645892 1.115404-25.263383-2.113127-2.838651-4.273327-5.379521-6.362918-7.835456-3.682879-4.331655-7.161097-8.420787-8.05956-11.639085-24.185842-86.644359-29.278837-176.460967-14.337543-252.90501 17.422811-89.145319 59.860343-157.054989 126.134769-201.842031 66.116837-44.679595 133.645836-60.352553 201.688535-46.992267-17.899672 2.128477-35.655058 6.463202-52.908 13.033851-54.138014 20.61655-98.581226 61.435211-125.145232 114.940822-58.143235 117.115348-14.496156 262.177188 97.300047 323.368852 32.82357 17.966187 69.539796 27.418466 106.385982 27.418466 1.022283 0 2.046612-0.008186 3.068895-0.021489 9.438976-0.135076 17.499559-6.847965 19.339464-16.107863 1.838881-9.259898-3.044336-18.544355-11.714809-22.276353-5.480828-2.358721-10.839883-4.967128-15.927761-7.749498-54.978149-30.093389-75.120908-79.411631-82.33624-115.484198-9.975189-49.867758-1.777483-104.911398 23.085788-154.988934 22.188348-44.692898 48.175209-74.765821 79.538521-91.436502 43.799552 68.378343 68.340481 143.960763 72.955592 224.772276 3.829212 67.035766-5.922896 137.948839-28.985148 210.773448-36.547381 115.406426-95.52461 199.51094-105.060801 212.667587l-54.821583 0c0.558725-1.840928 0.864694-3.791349 0.864694-5.815449 0-23.264866-7.895831-44.701085-21.122063-61.72276l37.106106 0c11.04966 0 20.007683-8.905834 20.007683-19.954471s-8.956999-19.954471-20.007683-19.954471L163.583682 810.067606c-11.04966 0-20.007683 8.905834-20.007683 19.954471s8.958022 19.954471 20.007683 19.954471l48.972365 0c-13.226233 17.021675-21.122063 38.458917-21.122063 61.72276 0 2.023076 0.305969 3.974521 0.864694 5.815449L83.552951 917.514757c-11.04966 0-20.007683 9.417487-20.007683 20.466124s8.958022 20.466124 20.007683 20.466124l849.193719 0c11.04966 0 20.007683-9.196453 20.007683-20.24509 0-122.220622-13.82589-236.243539-41.089837-338.428849C898.04124 548.71111 881.052311 500.450966 860.914668 455.480752zM820.682361 377.131313c-33.476439-57.099463-66.98767-97.124038-92.296079-122.991172 1.778506 0.533143 3.551896 1.095961 5.316076 1.711991 52.486398 18.325367 86.401836 68.916603 88.540546 123.999129C821.718971 378.948705 821.209364 378.029776 820.682361 377.131313zM830.183759 165.564803c67.701938 23.63735 104.518448 100.954273 82.072227 172.35444-9.636474 30.655184-27.723412 55.517431-51.517327 71.756277 10.994402-82.390475-35.645848-164.298973-113.845884-191.601806-17.454534-6.093788-35.492352-9.148357-53.535287-9.148357-0.819668 0-1.64036 0.011256-2.461051 0.023536-0.073678-0.161682-0.13917-0.326435-0.217964-0.48607C723.476459 166.247348 778.868023 147.648758 830.183759 165.564803zM345.999268 212.440413c-74.302263 50.211589-123.751488 128.817877-143.002948 227.321332-13.860682 70.921259-11.838629 152.141072 5.440919 232.363162-20.448728-19.300578-38.490639-41.491996-53.474912-65.937758-92.515067-150.929478-50.978045-352.651782 92.589768-449.671443 50.095955-33.854039 107.720374-51.480488 166.331259-51.480488 17.402345 0 34.896788 1.555425 52.300156 4.701069 44.297902 8.006348 85.845157 25.865087 122.145921 52.013631C506.448564 142.707213 424.099021 159.662373 345.999268 212.440413zM495.398904 342.943676c-28.78151 57.971319-38.186717 122.121362-26.483164 180.631964 7.071046 35.349089 21.683858 66.86385 42.643216 92.879364-1.006933-0.528026-2.009773-1.065262-3.007497-1.609661-93.198635-51.013861-129.386836-172.346253-80.670298-270.473131 22.071691-44.458561 58.845223-78.316693 103.544261-95.339392 17.612123-6.706749 35.855626-10.584056 54.174853-11.644201C549.818327 258.434957 519.963369 293.466821 495.398904 342.943676zM231.449349 911.699308c0-33.165354 26.543539-60.147892 59.168588-60.147892 2.764973 0 5.39794-0.560772 7.7935-1.574868l90.342588 0c2.39556 1.014096 5.028527 1.574868 7.7935 1.574868 32.626072 0 59.167564 26.982538 59.167564 60.147892 0 2.023076 0.305969 3.974521 0.864694 5.815449l-225.997174 0C231.143381 915.672806 231.449349 913.722384 231.449349 911.699308zM598.162382 917.513734c23.5166-36.20355 65.162092-107.733677 94.351901-199.38098 24.726148-77.633125 35.228339-153.534815 31.212886-225.603201-4.726651-84.826967-29.641087-164.337859-74.097602-236.603743 6.208399-1.125637 12.590759-1.87265 19.168572-2.222621 16.892739 13.43908 66.920132 57.520041 117.365035 143.561673 9.69685 16.540721 18.85851 33.727149 27.501354 51.491745 0.653893 3.123131 2.053776 6.090718 4.148483 8.628518 22.160719 46.982034 40.651862 97.999988 55.18895 152.482857 24.880667 93.248777 38.188764 197.127659 39.61116 307.644729L598.162382 917.51271z" p-id="6129" fill="#f4ea2a"></path></svg>