<?xml version="1.0" standalone="no"?><!DOCTYPE svg PUBLIC "-//W3C//DTD SVG 1.1//EN" "http://www.w3.org/Graphics/SVG/1.1/DTD/svg11.dtd"><svg t="1521121389816" class="icon" style="" viewBox="0 0 1024 1024" version="1.1" xmlns="http://www.w3.org/2000/svg" p-id="1516" data-spm-anchor-id="a313x.7781069.0.i1" xmlns:xlink="http://www.w3.org/1999/xlink" width="200" height="200"><defs><style type="text/css"></style></defs><path d="M451.437183 839.333067c0.894876 2.73275-0.435151 1.330027 1.693506 0.894875 0.193514-0.048123 3.023533-1.523541 3.410562-1.741628 0 6.8201-3.966532 14.560673-11.101988 16.205033l2.588382 5.103044c5.296559-1.233782 5.079495-2.224903 5.079495-8.513606 2.249476-0.53242 2.515686-0.774057 4.257315-1.717056v-5.127618c2.99896-0.701361 4.35356-2.031388 6.699282-3.53138 2.99896-1.935143 3.53138-1.862447 3.53138-6.699282 0.120818 0.193514 0.168941 0.314333 0.218088 0.628666 0.53242 3.483258 4.35356 2.781896 5.756283 2.781896-0.072696-2.805446-1.668933-9.214968-2.563809-11.101989 5.514646-1.281904 8.126578-4.788712 9.383909-10.230662l-7.836818-3.941958c5.660038-0.314333 6.554914-0.193514 6.990065-5.441951h4.257315c0.919449 3.918409 1.717056 2.322172 1.717056 7.691427 0.145392-0.145392 0.314333-0.605116 0.362455-0.483274l2.757324-5.079495c2.201353-4.547075 0.870303-2.491113 3.700321-0.411602l7.013615-7.497912c4.184619 0.193514 0.967572 0.459725 4.934103 1.523541 0.145392-6.118739 0.024573-1.814325 5.127618-4.257315-0.314333-3.797591-3.604076-11.657958-5.127618-14.511527l-9.383909 0.846753c1.693506-2.515686 3.096229-5.538196 3.410562-9.383909-18.188299-1.523541-12.963412 1.717056-24.742189 1.717056-0.82218-3.55493-1.64436-3.192474-0.894876-6.047067 2.079511-7.90849 3.82114-7.400643 12.141233-5.223863 3.119779 0.82218 5.828979 1.814325 9.214968 1.887021-0.120818-4.90953-1.523541-2.805446 0.580543-5.369255 4.861408-5.877102 7.256275-5.006799-4.885981-10.811205l-2.830019-1.427296c-0.120818-0.072696-0.362455-0.193514-0.532421-0.314333 6.869247 0 11.052842-1.717056 17.922089-1.717055 3.966532-5.925224 8.53818-11.319052 8.53818-16.205033 1.306478 1.499992 1.161086 1.063817 1.717055 3.410562l2.345722-4.039228c2.394868 2.322172-1.887021-0.749484 0.846753 0.846753 1.717056 1.015694 1.209209 0.628666 3.627626 0.628666-1.257331 1.717056-2.73275 2.781896-5.127618 3.410562 1.37815 2.853568 0.846753 7.739549 0.846753 11.947718 3.483258 0.942998 3.652199 3.192474 7.691427 4.256291 1.717056-1.136513 2.491113-1.306478 3.724894-3.167901 2.104084-3.217048-1.814325-3.289744 3.966532-1.935144v-4.257315c3.506807 0.82218 4.135473 2.515686 7.666854 2.539236 2.322172 0.024573 6.748428-1.789752 8.682547-2.418417 9.553874-3.047083 5.828979-4.90953 5.828979-13.786616 5.828979-0.628666-0.338906-0.048123 4.257315-3.410562-0.338906 4.039228-1.717056 6.434095-1.717055 11.101988 9.529301 0 9.383909 1.668933 19.615595 8.53818v10.230662c8.053882-1.887021 17.705025-7.90849 17.922089-17.922088-7.618731 1.765178-5.127618-1.571664-5.127618-9.383909 5.683587 0.120818 7.933063 2.44299 11.367175-2.297599 1.450846-2.007839 0.507847-0.628666 1.161086-2.274049 1.523541-3.918409-0.28976-2.152207 6.26413-6.530341v-5.974371h-7.691427v-5.127618c-1.330027 0.894876-4.90953 4.378134-10.932023 2.370295-4.280865-1.427296-0.483274-2.515686-3.579503-8.344665 3.361416-0.894876 5.949798-4.257315 7.691426-6.820101-1.862447-1.257331-3.434111-2.805446-5.127617-4.256291 2.201353-0.580543 3.096229-1.475419 5.127617-2.563809-0.26621-3.071656-1.063817-4.063801-1.717055-6.8201 5.73171 3.845713 4.861408 5.99792 1.717055 11.947718 3.870287 1.040267 2.563809 2.611931 2.563809 7.691427 6.409522 0 15.140192-3.700322 20.800231-5.660039 10.037148-3.434111 6.216008-1.837874 9.5293-0.846753 3.748444 1.136513 8.99688 0.507847 13.206073 0.507847v-1.717055c-3.748444 0.072696-2.660054 0.580543-5.974371 0.846753-2.297599-3.434111-5.369255-6.796551-7.691426-10.230662 5.296559-0.120818 8.368215-2.44299 13.641224-2.563809l0.967572 3.385989c2.975411-0.218088 3.966532-1.040267 6.723855-1.668933-1.693506-1.184635 1.668933 0.048123-2.224903-1.184636-2.055962-0.653239-1.281904-0.459725-3.748444-0.53242-0.459725-5.610892-2.73275-2.611931 0.193514-7.400643 1.741629-2.853568 3.26517-4.498952 4.08735-7.957637-7.473339 0.82218 0.120818 8.53818-11.947718 8.53818-0.507847-6.070616-3.289744 0.967572-13.641224-14.511527 5.006799-1.330027 0.749484-2.539236 7.570608-3.53138 3.483258-0.507847 7.013614-0.82218 10.351481-1.596238l-2.853569-3.119778c-0.120818-0.120818-0.362455-0.28976-0.459724-0.387029a9.239541 9.239541 0 0 1-0.459725-0.387029 11.136801 11.136801 0 0 1-0.483274-0.387028c5.949798-1.596237 10.71496-11.101989-0.846753-11.101989l-0.846753 1.717056 0.992145-5.079495c-3.53138-0.82218-5.901675-2.297599-9.505751-2.588382l11.101988-5.103045c9.891756-4.426256 7.739549-2.055962 12.769898-0.870302-2.73275 4.08735-2.588382 3.991105-5.974371 1.717055-0.072696 2.805446-1.64436 6.167885-0.919449 7.44979 1.741629 3.119779 3.845713-0.435151 4.328987-2.345721 12.213928 0 5.538196-1.08839 11.101989-2.563809 0 4.64332 0.193514 7.207129-1.063817 10.883901-1.3546 3.991105-2.611931 4.378134-7.44979 4.474379 2.007839 2.99896 1.717056 1.862447 1.717056 6.8201 4.595197 1.063817 3.192474 1.571664 6.8201-0.846753l3.289744 2.7092c6.336826-4.305438 0.411602-3.385989 8.658998-2.7092v-3.410562h-3.410562v-4.256292c-3.870287-0.097269-3.385989-0.846753-7.691427-0.846753 1.571664-2.99896 5.200314-10.278785 5.974371-13.641224 1.741629 1.161086 2.709201 1.571664 3.192475 3.676772 0.338906 1.475419-1.499992 7.400643 4.740589 8.973331 3.096229 0.774057 4.184619-0.55597 5.70816-1.571664l3.483258 1.64436c6.505767 2.418417 7.643304 2.539236 11.00472-2.491113-1.402723-2.636505-2.684627-4.449806-4.257315-6.8201 5.99792 0 8.151151-1.717056 13.641224-1.717056 0-5.223863-0.774057-4.885981-4.547075-6.554914-4.64332-2.055962-4.522501-1.233782-5.708161-6.240581-3.797591 1.015694-1.37815 1.693506-3.918409 1.136513-2.273025-0.507847-0.024573-0.992145-3.773017-1.983266 0 6.336826-1.040267 9.770938-5.974371 11.101989-1.427296-1.3546-1.063817-0.967572-2.297599-2.830019-0.846753-1.306478-1.233782-2.031388-1.983266-3.144352 3.748444-0.072696 2.660054-0.580543 5.974371-0.846753 0-11.682532-3.458685-9.383909-9.383909-9.383909v-4.256292c-7.473339 0-5.683587-2.274049-3.700321-7.08631 2.224903-5.369255 4.232742-7.062761 10.859327-8.80439 3.991105-1.040267 1.499992 0.314333 5.731711-2.055962l2.878141-0.749484c2.611931-0.580543 1.91057-5.054922 5.587342-7.739549-0.870303 3.700322-2.46654 7.013614-3.385988 10.351481-1.184635 4.257315 1.402723 4.449806 2.539235 9.287664 5.127618-3.434111-0.53242-3.410562 7.691427-3.410562-1.063817-4.571648-2.273025-4.474379-1.958693-7.256276 0.241637-2.055962 1.789752-5.974371 2.370295-8.634425 1.306478-5.974371-0.097269-4.35356-1.37815-8.271969-0.048123-0.120818-0.096245-0.362455-0.120818-0.483274l-2.322172-6.095189c5.345705 0.435151 2.007839 2.128658 6.8201 3.410562 0 3.313293-0.701361 8.973331-1.717056 11.101988 10.376054 2.418417 7.062761 5.200314 5.974371 6.8201 5.490073 0 4.836834 0.241637 8.53818-1.717055 0 5.200314-0.846753 6.216008-0.846753 11.101988l3.676772-3.144352c1.330027-0.701361 3.870287-1.063817 5.70816-1.112963-0.701361 2.975411-1.306478 4.449806-2.563808 6.8201 5.514646 0.459725 3.506807 4.449806 2.563808 8.53818 3.410562 0.072696 3.167901 0.387029 5.127618 1.717056 2.44299-3.652199 4.160046-2.370295 4.257315-7.691427-2.73275 1.837874-0.605116 1.402723-4.257315 1.717056l3.410562-3.410562c-3.361416-0.072696-2.007839 0.241637-4.256291-0.846753 1.475419-2.201353 3.023533-4.328987 5.974371-5.127618 5.152191 2.73275 3.023533 1.306478 3.483258 8.465484 0.241637 3.724895 0.774057 6.167885 0.774057 11.17366 4.449806-0.096245 4.522501-1.37815 8.53818-1.717055-0.919449-2.249476 1.765178-1.596237-3.410562-1.717056 2.878142-4.280865 4.958677-3.361416 5.127617-11.101989l-8.513606-1.015694c0.120818 0.024573 0.387029-0.362455 0.459724-0.218087l2.345722-1.91057c1.958693-2.249476 1.3546-0.82218 1.450845-4.522502h-5.127618v-5.974371c-3.748444 0.072696-2.660054 0.580543-5.97437 0.846753 2.345721-3.506807 9.094149-5.490073 6.361399-10.521445-2.539236-4.64332-2.249476 2.345721-2.950837-3.991105l-3.289744 2.7092-5.223863-2.73275c-0.26621 9.094149-5.490073 1.693506-8.561729 0.894876 1.233782-2.322172 2.274049-4.378134 2.563809-7.691426h-4.257315c1.185659-1.765178 1.233782-0.82218 1.112963-3.047083l1.450846-8.053882c5.054922 2.418417 12.044987-0.846753 17.922088-0.846753-0.024573-1.427296-1.887021-5.73171 4.256292-10.230662-0.919449-3.458685-0.411602-0.193514-1.233782-3.047083-1.427296-5.006799 0.749484-8.295519-5.587342-9.770938v-4.257315h4.257315c0.797607-3.410562 2.249476-5.756283 2.563809-9.383909h8.538179c1.161086-2.44299 5.054922-14.705041 5.127618-17.922089-9.046027-7.836818-0.628666 6.336826-20.703985-7.449789-1.693506-1.161086-0.507847-0.241637-1.475419-1.08839 5.152191 0 7.666853-1.717056 12.794471-1.717056-2.515686-10.763083-5.756283-4.667893-7.643304-12.963412-0.967572-4.305438-0.53242-2.684627 1.983266-6.312253 2.418417-3.506807 1.499992-4.498952 6.530341-4.595198 0.193514-2.297599 0.411602-2.322172 0.846753-4.257315-1.765178-2.660054-1.693506-3.313293-5.974371-3.410562 3.047083-4.571648 4.765162-3.337866 11.17366-4.184619 6.3614-0.846753 6.748428-3.144352 11.876046-4.353561 1.983266 1.330027 2.757323 3.168925 4.160046 2.73275 2.539236-0.774057-0.605116-2.99896-1.596237-4.449805 3.724895-0.870303 4.813285-2.539236 8.53818-3.410562 2.055962 1.37815 1.717056 2.73275 6.554914 2.273025 3.652199-0.338906 6.554914-4.498952 9.650119-9.094149-4.08735 0.942998-2.975411 1.887021-5.708161 2.830019-2.491113 0.870303-3.385989-0.26621-7.08631-0.26621v-4.257316h-4.257315c1.063817-2.007839 1.475419-2.224903 1.717055-5.127617-4.378134-1.015694-3.240597-0.218088-2.563808-3.410562-8.682548 5.828979-6.8201 7.304398-6.820101 11.101988-10.665813-0.894876-5.949798-1.281904-4.256291 5.974371-3.26517 0.749484-3.579503 1.789752-6.8201 2.563809-1.161086-0.774057-1.693506-1.08839-3.047083-2.128658l-1.935143-2.152207c-0.774057-0.725935 1.015694 0.26621-1.185659-0.749484l-4.934104-2.660054c2.104084-4.378134 2.950838-8.344665 1.717056-13.641224-5.683587 0-7.377094 0.846753-12.794471 0.846753v-3.410562l0.846753-4.257315c1.862447 0.894876 3.362439 1.499992 5.974371 1.717056 2.274049-3.410562 2.418417-5.853552 7.691427-5.974371 0.894876 1.862447 1.499992 3.361416 1.717055 5.974371 4.934103 0 5.587342-1.136513 5.974371 3.410562 4.280865 0 4.426256 0.097269 7.691427 0.846753l-0.992145 5.079495c6.675732-0.096245-0.26621 0.024573 10.376054-5.079495-1.063817-1.571664-1.185659-1.233782-1.958693-2.224903l-5.70816-7.183579c2.975411-0.798631 1.91057-0.314333 3.410562-2.563809-7.400643-4.958677 0.580543-4.958677-6.820101-5.127618 1.765178-2.660054 1.693506-3.313293 5.974371-3.410562-1.814325-3.434111 0.218088-2.418417-4.08735-3.604076-4.885981-1.330027-4.328987 0.967572-4.449806-4.08735-9.166845 0-5.054922-0.507847-10.230662-1.717056-3.119779 2.104084-9.577423 7.038188-11.947718 7.691426-0.411602-4.958677-4.401683-5.490073-6.216007-8.271969-0.701361-1.08839-0.82218-2.370295-1.450846-3.676772 4.426256-0.362455 5.248436-2.44299 9.383909-3.410562-0.072696-3.748444-0.580543-2.660054-0.846753-5.974371 1.3546-0.676788-1.571664-0.870303 2.563809 0l-4.426256-4.958677c7.135457-1.08839 5.828979-2.709201 6.143311-3.579503-3.652199-1.741629-7.377094 0-11.947717 0 1.548115-2.926264 3.313293-4.08735 3.410562-8.53818 3.337866 1.596237 3.192474 0.314333 6.8201 0v5.974371h6.8201c0 7.739549 3.797591 8.53818 11.101988 8.53818 3.797591-7.183579 2.878142-2.539236 3.36244-12.842594 0.28976-5.828979 0.218088-0.725935 5.17574-11.052842 3.966532 1.063817 0.749484 1.3546 5.127618 1.717056-1.499992 2.031388-3.119779 2.757323-5.974371 3.410562 1.136513 2.370295 0.846753 1.64436 0.846753 5.127618 2.975411-0.701361 6.8201-2.902715 9.383909-4.257316v5.974371h-6.8201c-0.725935 3.096229-0.459725 2.73275-2.563809 4.257316 3.240597 4.836834 3.870287 2.73275 0 8.538179l2.73275 2.370295 3.941959-3.385989c9.601997 6.771978 1.306478 13.229622 7.933063 9.795511 2.44299-1.257331 1.814325-2.99896 1.741629-3.773017-0.338906-3.192474-3.144352 3.096229 4.014654-7.691427 3.627626-5.441951 1.862447-5.393828-0.749484-9.263091 2.079511-1.523541 1.837874-1.161086 2.563809-4.257315h5.974371v2.563809c5.683587-0.120818 10.690387-2.950838 16.205033-3.410562 0 8.99688-2.128658 5.296559-7.159006 11.585263-2.563809 3.240597 3.434111 1.233782-4.595197 5.683587-1.91057 1.063817-1.37815 0.992145-3.627626 1.499992l2.563809 3.410562c-0.870303 0.580543-1.741629 0.894876-2.394868 1.887021-1.596237 2.539236-1.571664 0.241637 0.676788 2.370294-2.950838 0.072696-3.385989-1.475419-5.127618 5.974371-4.08735 0-5.635465-1.499992-8.99688-0.53242-2.902715 0.82218-3.748444 3.023533-7.207129 3.941958 3.506807 5.223863 1.37815 0-1.233781 8.151151-0.653239 2.031388-0.580543 2.224903-1.330028 3.797591 9.577423 0.218088 6.047067 5.660038 14.802311-3.144352 3.410562-3.410562 2.99896-3.458685 0.555969-7.08631 2.611931-1.741629 2.031388-2.781896 5.175741-3.337866 2.684627-0.483274 5.610892 0.411602 8.247396-0.28976 3.023533-0.798631 6.191435-5.466524 10.472299-6.603036 0.193514 2.297599 0.411602 2.322172 0.846753 4.257315 7.90849-2.104084 4.328987-8.876062 1.717056-12.794471 2.563809-0.605116 7.231702-3.362439 8.53818-5.127618-4.08735-0.942998-6.554914-1.62081-8.030333-3.918409-0.580543-0.894876-0.894876-2.007839-1.3546-2.902715l6.167885-5.780857-6.167885-0.193514c-0.53242-2.249476-0.774057-2.515686-1.717056-4.257315h-7.691427c0-3.870287 0.459725-5.780857-0.846753-8.53818h5.974371l-0.846753-3.410562c3.240597 0.870303 2.152207 1.668933 5.974371 2.563809 2.224903-3.313293 4.716016-6.216008 6.8201-9.383909 6.239557 0 8.27197 1.717056 14.511527 1.717056 1.015694-4.35356 0-2.44299 0-7.691427-4.571648 0.096245-4.256291 1.862447-7.836819-0.653239l-2.418417-1.91057c14.100949 0 6.434095-0.483274 15.35828-2.563809v-5.127617c-1.935143-0.459725-1.958693-0.653239-4.257315-0.846753 1.837874-1.596237 2.563809-0.846753 2.563809-5.974371l3.289743 2.7092 0.120819-7.836818c-1.571664-0.362455-5.127618-1.281904-2.224903-2.73275 2.055962-1.040267 2.44299 0.870303 5.127618 1.427296 3.55493 0.725935 1.161086-0.967572 5.949797 0.096245 2.418417 0.53242 3.966532 1.475419 6.530341 2.055962l0.338906-2.588382c0.82218-2.394868 1.136513 0.096245-0.024573-2.055962l-0.314333-0.483274c3.313293-0.26621 2.224903-0.774057 5.974371-0.846753l-5.27301-3.119778 7.836819-1.161086c-9.699266 0-1.548115-5.321132-9.383909-5.974371 0.097269-4.160046 1.765178-4.861408 0-8.53818-4.619771-2.224903-5.562769 2.17678-10.230662 3.410562-2.684627-1.789752-1.958693-2.44299-3.361416-3.458684-3.724895-2.781896-3.313293 2.394868-3.458685-4.208169-2.515686 1.209209-2.394868 0.846753-5.97437 0.846753-1.427296 2.684627-2.781896 4.885981-4.256292 7.691427-4.401683-2.950838-1.063817-2.73275-0.193514-7.062761 1.209209-6.095189-3.119779-6.892796 3.627626-7.44979l1.814324 5.925224c1.935143-1.475419 3.023533-3.458685 3.289744-6.79655 4.305438 2.055962 1.862447 0.241637 5.974371-0.846754l0.967572 3.385989 3.313292-0.82218c-2.370295 3.55493-2.563809 1.523541-2.563808 7.691427 9.214968 0 9.094149-2.491113 15.358279 1.717056l-2.7092 3.289743c4.328987 2.926264 3.240597 6.578463 7.836818 7.812245-0.26621-3.289744-4.522501-11.778777-5.974371-14.511527 2.394868-0.628666 3.870287-1.693506 5.127618-3.410562-7.08631-10.569568-12.794471-9.046027-12.794471-22.179404-2.878142-1.523541-1.596237-0.072696-3.410562-2.563808-3.385989 1.233782-1.330027 2.563809-8.53818 2.563808-0.749484-3.26517-1.789752-3.579503-2.563809-6.8201-4.474379 0.096245-4.958677 1.717056-18.768842 1.717056 0 6.095189-0.628666 3.918409-4.740589 5.514646-3.652199 1.427296-5.514646 5.853552-8.925208 8.151151l-6.651159-6.143311c-4.64332 0.701361-7.207129 3.192474-9.335786 7.159006-1.450846 2.709201-0.605116-0.435151-0.218088 4.111923-4.35356 0-4.522501 0.676788-7.764122 0.846753-4.716016 0.26621-4.014654-0.870303-7.594158-1.717055-0.53242 6.457645-7.110884 2.563809-11.947718 2.563808 1.668933-2.46654 1.717056-1.136513 2.563809-4.257315-7.279825-4.861408-2.99896-5.949798-6.554914-10.496872-1.402723-1.814325-7.08631-7.110884-8.803366-8.27197 2.588382-3.870287 5.587342-6.143312 2.99896-14.100948-1.136513-3.483258-2.46654-4.595197-6.409522-4.667893 0.725935-3.168925 1.402723-2.394868 1.717056-5.974371l-6.796551-0.992145c-0.024573-1.257331-0.26621-2.805446-0.290783-3.918409-0.120818-5.345705 2.830019-0.653239 2.830019-10.44875-8.948758-4.305438-9.674692-0.338906-14.294463 0.362455l-1.161086 0.048123c-4.934103 0.82218-0.628666 2.73275-6.723855 1.306478-0.096245 4.08735-2.128658 10.544995-3.047083 14.875006-1.548115 7.231702-0.967572 9.069576-8.053882 10.738509-1.136513-1.693506-1.548115-2.370295-2.563809-4.257315-7.521462 0-5.223863 1.184635-11.101988 2.563809v5.97437c-1.837874 0.967572-5.708161 2.515686-7.207129 3.893836-2.370295 2.17678-2.44299 4.813285-5.562769 6.384949-4.014654 2.031388-15.043947-0.894876-21.3562-0.894876v-8.538179c-3.119779 0.26621-6.505767 2.031388-9.142272 1.499992-7.304398-1.499992-1.402723-6.288704-13.326892-1.814325-4.836834 1.814325-3.966532 0.145392-3.966531 5.417377-4.014654-0.338906-4.08735-1.596237-8.53818-1.717056-0.435151-5.127618-1.402723-8.925208-6.8201-9.383909 2.830019-4.208169 4.619771-2.370295 6.844673-4.257315 1.765178-1.499992 1.765178-6.796551 1.741629-10.255235 0-7.400643-2.902715-11.972291-6.022493-17.897516l3.604076-3.217047c-2.878142-4.08735-5.321132-6.143312-6.409522-11.029293-1.64436-7.328971-2.611931-20.993745-8.731694-25.395428-3.26517-2.345721-6.748428-6.26413-10.642264-7.279824 1.112963-2.297599 1.040267-5.079495 0.942998-8.586303-0.168941-5.828979-0.241637-3.192474-2.636505-6.771977 1.548115-1.136513 1.64436-1.475419 2.73275-3.240597 2.515686-4.039228 5.660038-5.514646 10.061721-7.860368v-8.53818c-3.168925-0.725935-2.394868-1.402723-5.97437-1.717055 2.224903-3.337866 6.554914-5.152191 7.691426-9.383909-2.007839-2.99896-4.788712-2.44299-7.787672-4.160046-1.837874-1.063817-0.942998-0.26621-2.007839-2.249476-2.491113-4.571648-1.693506-8.078455-8.126578-8.078456-0.580543 2.491113-1.499992 3.941959-2.563808 5.974371-9.843634 0-4.378134 1.837874-11.101989 3.410562-2.079511-1.523541-1.837874-1.161086-2.563809-4.257315-4.063801 0-4.619771 0.82218-8.053882 1.402723-5.152191 0.870303-4.135473-1.161086-7.304398 0.314333-1.523541 3.700322 3.410562 2.684627-0.362455 4.64332-1.668933 0.870303-4.328987-0.992145-7.327947-1.233782l-0.992145-6.796551c-2.031388 0.168941-4.014654 0.894876-5.708161 1.789752-4.426256 2.322172-8.151151 8.852513-12.91529 10.134417 1.571664 2.345721 2.73275 4.280865 5.369255 5.73171 1.548115 0.846753 1.499992 0.725935 3.168925 1.112963 0 6.047067-2.44299 10.521446-2.563809 16.205033-8.320092 0-12.62553 2.975411-19.832658 5.780857-4.716016 1.837874-6.336826 0.725935-11.8269 0.992144-7.497912 0.362455-3.700322 2.370295-3.313293 6.892796l-5.079495 0.992145c-0.024573 4.160046-0.798631 3.700322-0.870302 7.546035-5.466524-1.450846-1.209209-4.257315-12.867167-3.483258-5.925224 0.387029-2.611931 1.161086-5.828979 2.73275-4.449806 2.17678-1.136513-1.887021-6.143312 0.605116-2.007839 0.992145-1.306478 2.273025-4.522502 3.217048-3.313293 0.942998-4.35356-0.411602-7.473339 1.063817-0.53242 0.241637-4.111923 3.096229-4.861407 3.676772-1.862447 1.427296-2.926264 2.660054-5.248436 3.289744 0 5.974371 0.967572 7.352521-1.765179 11.029292-1.596237 2.152207-3.870287 5.514646-5.901675 6.892796-2.201353-1.475419-2.249476-2.273025-3.991105-3.676772-3.724895-2.975411-2.636505-0.387029-6.626586-1.91057-3.652199-1.402723-2.805446-4.836834-10.71496-5.514646-0.072696-3.168925-2.17678-10.642264-3.627625-12.577407-1.571664-2.104084-6.26413-6.530341-8.320092-7.908491-5.514646 8.223847-8.876062 4.740589-14.705041 10.883901-3.579503 3.773017-3.240597 2.950838-7.497913 5.296559-5.103044 2.805446-1.063817 5.006799-7.643304 5.152191v-5.974371c-5.514646 0.459725-3.483258 3.773017-8.538179 5.127618 4.257315 6.3614 3.410562 8.295519 3.410562 16.205033-5.974371 0.145392-2.273025 1.209209-4.522502 4.861407-2.853568 4.619771-4.426256 5.369255-10.835778 5.369255 1.136513 2.370295 0.846753 1.64436 0.846753 5.127618-4.90953 0-9.529301-2.080535-13.762043-0.120819-3.023533 1.37815-0.26621 0.459725-3.289743 2.684628 1.862447 2.781896 2.224903 1.184635 2.563809 5.127617l-2.46654 1.837874c-4.328987-3.240597-5.562769-11.80335-11.052842-3.410562-1.3546 2.080535-2.345721 3.192474-3.55493 4.982226 3.240597 2.370295 4.90953 7.062761 2.563809 11.947718 3.362439 0.28976 2.636505 1.257331 5.73171 0.628666 2.128658-0.459725 1.935143-1.523541 5.369255-2.322172 1.37815 5.925224 2.563809 11.706081 2.563808 18.768842 9.118723 2.44299-1.37815 11.27093-1.765178 16.253156-0.411602 5.079495 0.82218 3.192474 1.765178 6.771977 3.337866 0 5.054922 0.82218 7.497913 2.73275 1.281904 1.015694 3.337866 1.91057 1.983265 5.756283-0.193514 0.55597-1.571664 3.119779-2.055961 4.039228-2.297599 4.184619-13.085254 15.479098-16.809126 16.471243 1.3546 2.830019 0.846753 6.191435 0.846754 10.230662-9.456605 5.006799-12.165805 5.054922-17.922089 13.641224-4.232742-0.362455-3.845713-2.345721-7.207129-1.306477-3.483258 1.08839-2.128658 3.217048-7.038188 2.805446-5.756283-0.483274-10.303358-0.048123-13.907434 5.321132-5.73171-3.845713-5.780857-2.44299-13.108804 1.378149-4.328987 2.273025-6.26413 6.626586-9.069576 10.569568-15.599917 21.98589-10.424176 13.786616-7.691427 25.588942-5.441951 8.151151-10.859328 5.99792-4.280864 16.228583 2.007839 3.144352 1.862447 4.160046 5.99792 4.257315-0.168941 7.764122-0.894876 10.956597-5.974371 15.35828 3.240597 0.870303 6.457645 3.434111 7.957637 6.554914 0.774057 1.62081 1.475419 4.449806 2.152207 5.538196 1.257331 2.031388 2.515686 2.17678 5.273009 2.418417-0.725935 3.071656-2.104084 4.280865-3.53138 6.748428-1.741629 3.023533-0.942998 0.483274-1.015694 3.071656-0.024573 1.136513 0.26621 3.941959 0.26621 5.538196-3.55493 2.370295-1.523541 2.563809-7.691427 2.563808-0.241637-2.902715-0.653239-3.119779-1.717056-5.127617h-5.127617c-0.628666 2.684627-2.273025 6.216008-4.111924 7.836818-7.812245 6.869247-4.208169 2.926264-11.996864 13.593102l-4.35356 8.44091c2.249476 0.53242 2.515686 0.774057 4.257315 1.717056-0.072696 2.781896-0.82218 5.828979-1.717056 7.691426 3.144352 0.846753 2.926264 2.46654 5.828979 2.297599 1.693506-0.096245 3.434111-1.668933 6.09519-2.297599 0.28976 13.278769 6.578463 5.804406-6.603037 18.985906-9.529301 9.529301-10.44875 6.8201-10.44875 18.550754-10.738509 0-6.990065 6.434095-16.785576 9.674693-4.014654 1.330027-8.199274-0.362455-11.512566 1.281904-0.26621 0.120818-3.217048 2.394868-3.941959 2.902715-1.789752 1.233782-2.345721 1.789752-4.449805 2.370295 0 7.90849 0 5.030349 3.918409 9.747388 3.26517 3.966532 3.773017 3.023533 3.773017 9.868207l-6.796551-0.992145c-0.725935 3.119779-2.926264 6.965492-4.280864 9.5293h-6.8201c-1.814325 6.844673-1.765178-1.814325 0.846753 9.383909l-4.063801 4.449806c0.605116 1.475419 2.17678 7.691427 2.370295 10.037148-0.55597 2.152207-2.370295 1.935143-3.071656 3.773017-0.894876 2.370295 0.048123 2.781896-1.209209 5.610892-1.015694 2.322172-4.474379 6.312253-5.974371 8.53818l4.449806 4.063801c-1.789752 6.457645-4.958677 8.247396-2.926265 14.850432 0.992145 3.217048 1.837874 5.223863-0.314332 7.860368-2.104084 2.588382-3.797591 2.249476-8.030333 2.249476-0.26621 1.08839-2.273025 7.860368-2.636505 8.465484-1.523541 2.491113-3.458685 2.636505-9.312237 2.636505 0 3.434111-1.499992 9.722815-2.563809 11.947717 2.249476 0.53242 2.515686 0.774057 4.257316 1.717056-0.218088 2.611931-0.798631 4.111923-1.717056 5.974371 2.370295 1.571664 3.410562 2.902715 5.127618 5.127618 1.814325 2.345721 3.506807 3.144352 4.257315 5.974371-2.563809 1.3546-6.409522 3.579503-9.383909 4.257315 3.023533 5.708161 3.119779 4.280865 5.974371 8.538179h-5.974371c1.233782 2.322172 2.297599 3.652199 2.563809 6.820101 3.724895 0 9.433055 1.523541 12.165805 2.345721 4.522501 1.3546 1.789752 0.967572 4.280865 2.539235 2.902715 1.837874 0.774057 0.338906 5.73171 0.241637 3.941959 7.473339 1.015694 7.400643 10.811205 8.803366 14.00368 2.007839 7.522485-2.611931 14.777737-4.547074 0.338906 1.402723 1.402723 4.257315 2.17678 5.490073 1.91057 2.99896 1.063817 2.17678 5.490073 2.17678-0.218088 2.611931-0.798631 4.111923-1.717056 5.974371 14.052826 0 10.883901-5.804406 17.922089-5.974371v-5.974371l6.796551-0.992145c0.145392 5.780857 0.483274 1.717056 3.434111 6.118739-2.636505 0.628666-2.46654 1.08839-5.127617 1.717056v4.256291c4.135473 1.112963 7.522485 5.223863 5.127617 10.230662 3.361416 0.894876 2.781896 2.249476 5.828979 3.55493 5.273009 2.249476 7.062761-0.967572 9.239542 9.62657 0.725935 3.579503-0.314333 5.877102-1.402723 8.151151 2.515686 0.676788 1.37815 0.338906 3.410562 1.717056 6.917369-1.62081 7.497912-4.692466 11.947718-7.691427 3.023533 0.701361 2.781896 1.693506 5.901675 1.62081 3.991105-0.096245 8.320092-3.797591 12.141232-4.135472 3.652199-0.314333 3.53138 0.919449 6.699281 1.644359 1.571664-2.345721 2.44299-3.966532 5.974371-4.256291 2.757323 5.756283 1.693506 7.013614-0.846753 11.947718-2.031388 3.918409-3.579503 7.522485-5.974371 11.077415 2.152207 1.450846 5.223863 5.708161 5.974371 8.53818 8.126578 0 6.771978 0.798631 10.230662 5.974371-1.499992 2.224903-0.435151 1.765178-3.410562 2.563809 2.273025 3.410562 7.666853 10.496872 11.101989 12.794471-0.483274 5.73171-2.370295 1.402723-0.701362 4.982226 1.837874 3.918409 1.64436 0.314333 2.394868 6.095189 0.798631 6.167885 4.547075 7.714976 1.717056 13.641224 3.483258 0.942998 7.400643 4.692466 9.383909 7.691427-2.031388 3.023533-5.925224 5.514646-7.473339 7.884941-2.152207 3.240597-1.136513 9.239541-2.757323 12.600956 2.515686 0.676788 1.37815 0.338906 3.410562 1.717056-1.161086 4.35356-2.563809 1.040267-0.459725 5.441951 1.668933 3.483258 1.837874 3.071656 5.562769 3.941958 0 9.069576-4.90953 16.71288 1.814325 22.928888 7.570608 7.013614 1.837874 6.26413 6.434095 14.898555 3.337866 6.288704 2.853568 5.223863 2.853569 14.221768 3.337866 0.774057 7.110884 3.023533 9.553874 4.958676 2.830019 2.249476 0.338906 0.992145 3.362439 1.765179l7.086311 2.297598c2.709201 1.161086 4.836834 2.345721 7.304397 2.926264 0-4.328987 0.82218-4.765162-3.410562-5.127617 2.322172-4.401683 0.241637-4.256291 5.974371-4.256292 0 5.441951-1.717056 6.482218-1.717055 11.947718 5.321132-0.120818 4.039228-1.814325 7.691426-4.257315-1.161086-5.006799-0.725935-2.830019-0.096245-7.764122 0.28976-2.345721-0.894876-8.658998-1.596237-10.157967 6.095189-1.427296 3.845713-3.410562 12.794471-3.410562 2.757323 5.73171 1.668933 8.876062-0.846753 13.641225h10.230662c-1.063817 3.966532-7.159006 9.722815-9.868207 13.156926-1.548115 1.983266-2.611931 3.023533-3.773017 4.740589 11.489017-0.967572 3.870287 0.096245 8.610875 0.580543 2.224903 0.241637 5.780857-2.007839 9.312237-2.297599-2.007839-7.546035-2.563809 3.845713-2.563809-12.794471 6.118739-1.427296 3.82114-0.120818 9.383909 0-2.370295-3.55493 0-5.538196 0-10.230662 6.869247-1.596237 4.619771 2.370295 7.691427-3.410562-4.449806-6.070616-7.594157-1.37815-13.133377-1.015694-6.990065 0.459725 2.080535-5.635465 3.240597-8.876062 1.571664-4.426256-0.676788-2.46654 2.394868-5.223863 2.322172-2.079511 2.950838-2.370295 2.249476-6.8201-0.28976-1.789752-1.112963-5.514646-2.902715-6.626586-1.306478-0.82218-6.723855-1.306478-8.925209-1.306478v-4.257315c6.336826 0.53242 22.977011 4.449806 26.726479 9.118723 1.789752 2.224903 1.64436 3.289744 2.273025 6.288704 1.548115 7.425216-0.096245 7.377094-2.684627 13.44771-1.112963 2.611931-0.676788 5.296559-0.676788 8.70712 1.935143-1.402723 7.159006-10.18254 8.53818-12.794471 0.168941-1.475419-2.031388-2.636505-1.814325-6.79655 0.168941-3.458685-0.338906-6.990065 0.79863-9.577424 0.024573-0.048123 1.887021-2.902715 2.031389-3.096229 2.394868-3.047083 6.143312-4.449806 8.392788-7.812245-1.523541-6.530341-6.626586-12.794471 9.383909-12.794471l-0.349145-0.185323z" fill="#C7EDA6" p-id="1517" data-spm-anchor-id="a313x.7781069.0.i0" class="selected"></path><path d="M791.039468 437.450909h0.846753l-0.702386-0.99112zM721.913898 608.956821h-0.84573l0.701362 0.992145zM485.564305 814.589854l-0.967572 1.668933 0.967572-1.668933z" fill="#C7EDA6" p-id="1518"></path></svg>